<svg xmlns="http://www.w3.org/2000/svg" width="768" height="768" viewBox="0 0 768 768" version="1.1">
	<path fill-opacity="0.404" d="M 345.750 173.662 C 346.438 173.940, 347.563 173.940, 348.250 173.662 C 348.938 173.385, 348.375 173.158, 347 173.158 C 345.625 173.158, 345.063 173.385, 345.750 173.662 M 334.188 178.628 C 333.565 179.742, 333.056 179.900, 332.579 179.128 C 331.573 177.500, 318.355 177.633, 317.723 179.278 C 317.454 179.982, 315.767 180.669, 313.976 180.805 C 312.184 180.942, 308.869 181.525, 306.609 182.101 C 304.349 182.678, 300.700 183.483, 298.500 183.890 C 296.300 184.298, 292.025 185.344, 289 186.215 C 285.975 187.086, 270.225 191.076, 254 195.082 C 202.589 207.774, 197.570 209.123, 194.320 211.121 C 189.856 213.866, 185.426 219.178, 184.001 223.496 C 183.086 226.269, 182.755 254.901, 182.645 340.832 C 182.509 447.097, 182.618 455.047, 184.311 462.898 C 188.678 483.156, 200.372 495.429, 218.740 499.032 C 222.896 499.847, 230.578 500.086, 241.740 499.747 C 255.900 499.317, 259.840 498.838, 267.139 496.656 C 284.836 491.365, 296.622 484.262, 309.138 471.343 C 319.746 460.395, 326.833 448.979, 343.500 416 C 351.422 400.325, 360.677 383.225, 364.066 378 C 376.790 358.389, 391.418 343.883, 413 329.478 C 428.014 319.457, 457.313 302.913, 458.300 303.900 C 458.786 304.386, 462.686 311.181, 466.966 319 C 471.246 326.819, 474.983 332.831, 475.270 332.358 C 476.056 331.065, 491.939 292.380, 494.508 285.500 C 495.741 282.200, 498.423 275.450, 500.469 270.500 C 509.318 249.092, 513.010 239.531, 512.741 238.722 C 512.582 238.246, 511.338 238.707, 509.976 239.746 C 508.614 240.785, 504.350 243.459, 500.500 245.688 C 490.422 251.523, 434.002 285.390, 417.379 295.583 C 378.515 319.413, 357.413 340.671, 339.711 373.821 C 337.267 378.398, 334.870 382.148, 334.384 382.155 C 333.898 382.161, 333.275 382.426, 333 382.744 C 332.725 383.061, 333.063 382.997, 333.750 382.601 C 334.438 382.206, 335 382.148, 335 382.474 C 335 383.164, 330.079 393, 329.733 393.001 C 329.219 393.003, 329.840 384.068, 330.419 383.131 C 330.800 382.515, 330.032 382.308, 328.440 382.597 C 326.794 382.895, 326.076 382.686, 326.484 382.026 C 326.838 381.453, 326.424 380.281, 325.564 379.421 C 323.859 377.716, 323.784 377.074, 323.999 366.011 C 324.136 358.957, 322.996 356.855, 322.250 362.788 C 322.063 364.280, 321.169 366.063, 320.264 366.750 C 319.358 367.438, 318.946 368, 319.348 368 C 319.749 368, 319.160 368.985, 318.039 370.189 C 316.918 371.392, 316 372.790, 316 373.296 C 316 373.801, 314.618 377.203, 312.930 380.857 C 308.544 390.348, 308.527 390.387, 303.423 402.500 C 291.774 430.145, 282.231 445.812, 270.076 457.246 C 257.410 469.162, 243.240 475.176, 227.594 475.277 C 218.230 475.337, 212.732 472.574, 209.320 466.093 L 207 461.685 207 384.343 L 207 307 224.250 306.917 C 233.738 306.871, 242.625 306.689, 244 306.514 C 245.375 306.338, 256.175 306.104, 268 305.993 C 279.825 305.882, 290.260 305.388, 291.189 304.893 C 292.234 304.337, 293.115 304.377, 293.498 304.997 C 293.839 305.549, 294.879 305.968, 295.809 305.930 C 297.188 305.872, 297.130 305.701, 295.500 305 C 293.790 304.265, 293.754 304.130, 295.250 304.070 C 296.212 304.032, 297 303.712, 297 303.360 C 297 303.008, 296.212 302.117, 295.250 301.379 C 293.713 300.202, 293.683 299.902, 295 298.925 C 296.302 297.959, 296.285 297.880, 294.872 298.328 C 293.976 298.611, 292.739 298.339, 292.122 297.722 C 290.558 296.158, 290.693 294.549, 292.297 295.628 C 293.011 296.107, 292.805 295.768, 291.840 294.874 C 290.875 293.980, 290.359 292.974, 290.694 292.639 C 291.029 292.305, 289.836 291.414, 288.043 290.660 C 284.867 289.325, 284.844 289.272, 287.142 288.584 C 289.221 287.961, 288.864 287.650, 284.132 285.960 C 279.383 284.263, 274.628 283.963, 242.882 283.360 L 207 282.679 206.833 260.339 C 206.742 248.053, 206.629 237.213, 206.583 236.250 C 206.513 234.780, 211.859 233.101, 240 225.752 C 276.001 216.350, 290.875 212.412, 303.500 208.939 C 307.900 207.729, 313.075 206.378, 315 205.937 C 323.940 203.888, 331 201.680, 331 200.934 C 331 200.484, 331.856 200.280, 332.901 200.481 C 335.356 200.954, 343.292 198.625, 342.369 197.703 C 341.983 197.316, 342.218 197, 342.892 197 C 343.566 197, 343.826 196.528, 343.470 195.951 C 343.027 195.235, 342.376 195.273, 341.411 196.074 C 340.397 196.916, 340 196.929, 340 196.122 C 340 195.505, 339.235 195, 338.300 195 C 336.946 195, 336.853 194.747, 337.842 193.758 C 338.830 192.770, 339.263 192.807, 339.965 193.944 C 340.613 194.991, 341.201 195.084, 342.174 194.293 C 342.903 193.700, 344.400 192.994, 345.500 192.724 C 346.996 192.356, 346.792 192.203, 344.691 192.116 C 343.065 192.049, 342.146 191.572, 342.510 190.984 C 342.856 190.425, 343.557 190.226, 344.069 190.543 C 344.581 190.859, 345.472 190.826, 346.049 190.470 C 347.241 189.733, 345.435 187, 343.755 187 C 343.185 187, 343.276 187.628, 343.967 188.460 C 344.972 189.671, 344.822 189.851, 343.085 189.516 C 341.934 189.295, 340.575 188.856, 340.065 188.540 C 339.555 188.225, 338.849 188.436, 338.495 189.008 C 338.141 189.581, 338.222 189.926, 338.676 189.775 C 339.129 189.624, 339.636 189.950, 339.803 190.500 C 339.969 191.050, 339.375 191.652, 338.482 191.837 C 337.507 192.039, 336.641 191.345, 336.315 190.098 C 336.017 188.957, 335.405 188.250, 334.955 188.528 C 334.506 188.805, 333.813 188.506, 333.415 187.862 C 332.977 187.154, 333.123 186.958, 333.784 187.367 C 334.385 187.738, 335.242 187.436, 335.689 186.696 C 336.834 184.796, 339.571 183.971, 340.765 185.165 C 341.417 185.817, 341.988 185.828, 342.378 185.197 C 342.711 184.659, 341.411 183.474, 339.491 182.563 C 336.335 181.065, 335.528 179.989, 335.882 177.750 C 336.088 176.444, 335.134 176.938, 334.188 178.628 M 328.667 181.667 C 328.300 182.033, 328 182.798, 328 183.367 C 328 183.993, 328.466 183.934, 329.183 183.217 C 329.834 182.566, 330.134 181.801, 329.850 181.517 C 329.566 181.232, 329.033 181.300, 328.667 181.667 M 332.861 184.059 L 330.500 186.119 333.109 184.537 C 334.544 183.667, 336.569 183.232, 337.609 183.572 C 339.166 184.080, 339.235 183.998, 338 183.110 C 335.946 181.632, 335.563 181.703, 332.861 184.059 M 336.507 186.989 C 336.157 187.555, 336.558 187.723, 337.448 187.382 C 339.180 186.717, 339.497 186, 338.059 186 C 337.541 186, 336.843 186.445, 336.507 186.989 M 348 193.602 C 348 194.727, 348.438 194.836, 349.873 194.068 C 350.903 193.517, 352.767 193.263, 354.015 193.503 C 355.263 193.743, 356.921 193.584, 357.698 193.149 C 358.537 192.679, 356.857 192.313, 353.555 192.246 C 349.286 192.160, 348 192.473, 348 193.602 M 504 303.902 C 504 304.940, 505.902 306.443, 506.466 305.850 C 506.649 305.658, 506.169 304.920, 505.399 304.211 C 504.630 303.501, 504 303.362, 504 303.902 M 523.673 328.819 C 522.187 330.370, 521.203 331.945, 521.486 332.319 C 521.769 332.694, 521.710 332.785, 521.356 332.523 C 520.595 331.959, 510.444 341.133, 481.113 368.892 C 469.262 380.107, 458.015 389.931, 456.121 390.723 C 448.662 393.839, 446.423 392.303, 418.782 365.106 L 406.063 352.592 403.283 355.046 C 401.754 356.396, 397.808 360.082, 394.515 363.238 L 388.527 368.977 395.831 376.330 L 403.135 383.683 376.817 409.286 C 355.617 429.912, 349.922 436.018, 347.528 440.695 C 339.130 457.096, 332.165 467.803, 322.660 478.928 C 320.109 481.913, 318.178 484.511, 318.368 484.701 C 318.558 484.892, 372.551 485.032, 438.351 485.012 C 555.922 484.977, 558.081 484.942, 563.391 482.955 C 571.072 480.081, 577.322 474.191, 581.190 466.181 L 584.416 459.500 584.458 443 C 584.510 422.642, 583.864 398.963, 582.985 389 L 582.323 381.500 582.005 390.500 C 581.563 403.014, 581.390 404.943, 580.649 405.684 C 580.050 406.283, 579.585 403, 579.897 400.375 C 580.100 398.662, 575.457 395.943, 574.301 397.099 C 573.677 397.723, 573.333 397.537, 573.333 396.577 C 573.333 395.758, 573.657 395.288, 574.053 395.533 C 574.449 395.777, 575.007 395.082, 575.293 393.987 C 575.644 392.645, 575.437 392.233, 574.657 392.720 C 572.523 394.055, 570.829 393.888, 571.400 392.400 C 571.853 391.220, 571.571 391.159, 569.870 392.070 C 568.324 392.897, 567.490 392.888, 566.643 392.033 C 565.782 391.166, 565.994 391.066, 567.500 391.628 C 569.223 392.271, 569.324 392.157, 568.224 390.804 C 567.172 389.508, 567.225 389.128, 568.526 388.628 C 569.436 388.279, 569.845 388.441, 569.493 389.011 C 569.157 389.555, 569.332 390, 569.882 390 C 572.043 390, 571.992 387.947, 569.810 387.113 C 568.540 386.627, 566.625 385.259, 565.556 384.072 C 563.751 382.068, 563.743 381.964, 565.443 382.616 C 566.770 383.126, 567.132 382.931, 566.761 381.909 C 566.480 381.134, 565.744 380.613, 565.125 380.750 C 564.506 380.888, 563.996 380.438, 563.992 379.750 C 563.959 374.585, 562.654 352.415, 562.364 352.083 C 562.164 351.854, 561.994 371.204, 561.986 395.083 C 561.979 418.962, 561.693 439.545, 561.351 440.823 C 560.785 442.934, 559.346 441.789, 545.614 428.300 C 537.301 420.134, 523.606 406.809, 515.180 398.688 C 506.753 390.567, 500.003 383.598, 500.180 383.201 C 500.356 382.805, 507.019 376.185, 514.987 368.490 C 522.954 360.796, 529.356 354.129, 529.212 353.676 C 529.068 353.222, 529.334 353.089, 529.803 353.378 C 530.272 353.668, 533.321 351.119, 536.578 347.713 C 539.835 344.308, 540.874 343.008, 538.886 344.825 C 535.540 347.884, 535.150 348.008, 533.636 346.493 C 532.736 345.593, 532 344.574, 532 344.229 C 532 343.883, 532.540 344.140, 533.200 344.800 C 535.180 346.780, 536.111 346.153, 534.312 344.051 C 533.394 342.979, 532.274 342.331, 531.822 342.610 C 531.370 342.890, 531 342.473, 531 341.684 C 531 340.895, 529.538 339.529, 527.750 338.648 C 525.902 337.737, 525.228 337.036, 526.188 337.023 C 527.220 337.009, 527.820 336.265, 527.733 335.110 C 527.655 334.070, 527.080 333.416, 526.456 333.655 C 525.121 334.168, 522.418 331.249, 523.357 330.309 C 523.711 329.956, 524 330.150, 524 330.740 C 524 331.330, 524.900 331.577, 526 331.290 C 528.168 330.723, 528.601 329.490, 526.984 328.490 C 526.425 328.144, 526.226 327.443, 526.543 326.931 C 527.627 325.176, 526.373 326.001, 523.673 328.819 M 230.383 335.552 C 226.871 337.320, 225 340.647, 225 345.124 C 225 349.056, 229.758 353.969, 233.673 354.080 C 242.088 354.317, 279.472 353.864, 292 353.373 C 305.636 352.838, 309.719 351.972, 308.430 349.887 C 308.129 349.399, 308.385 349, 309 349 C 309.615 349, 309.865 348.591, 309.556 348.090 C 308.758 346.800, 310.029 343.900, 311.102 344.563 C 311.592 344.866, 311.556 343.964, 311.022 342.557 C 310.487 341.151, 310.279 340, 310.560 340 C 310.841 340, 310.604 339.128, 310.033 338.062 C 309.463 336.997, 308.210 336.132, 307.248 336.142 C 306.287 336.151, 301.225 335.914, 296 335.616 C 290.775 335.317, 274.575 334.827, 260 334.528 C 237.173 334.058, 233.068 334.200, 230.383 335.552 M 311.377 338.188 C 312.528 341.239, 313.560 341.084, 314.194 337.765 C 314.534 335.984, 314.171 335.500, 312.495 335.500 C 310.596 335.500, 310.473 335.794, 311.377 338.188 M 334.564 340.293 C 334.940 341.279, 335.499 341.834, 335.807 341.526 C 336.115 341.219, 335.808 340.412, 335.124 339.733 C 334.136 338.753, 334.022 338.868, 334.564 340.293 M 524 340.378 C 524 340.585, 524.788 341.373, 525.750 342.128 C 527.336 343.371, 527.371 343.336, 526.128 341.750 C 524.821 340.084, 524 339.555, 524 340.378 M 529.459 345.067 C 529.096 345.653, 529.014 346.348, 529.276 346.610 C 529.538 346.872, 530.019 346.392, 530.345 345.543 C 531.021 343.781, 530.445 343.471, 529.459 345.067 M 531.584 350.641 C 531.057 352.014, 531.204 352.076, 532.477 351.019 C 534.212 349.579, 534.393 349, 533.107 349 C 532.616 349, 531.931 349.739, 531.584 350.641 M 230.357 374.956 C 225.435 377.023, 223.289 385.112, 226.460 389.640 C 229.320 393.723, 232.102 394.047, 261.932 393.767 L 290.365 393.500 293.990 384.417 C 296.092 379.148, 297.171 375.225, 296.557 375.075 C 293.411 374.307, 232.166 374.197, 230.357 374.956 M 389.598 429.592 C 372.769 445.872, 359 459.599, 359 460.096 C 359 460.626, 392.014 461.073, 438.750 461.176 C 482.613 461.273, 524.037 461.397, 530.806 461.451 C 537.574 461.505, 543.532 461.289, 544.048 460.971 C 544.563 460.652, 538.792 454.341, 531.225 446.946 C 515.463 431.543, 492.454 409.346, 486.267 403.576 L 482.060 399.653 476.697 404.725 C 473.748 407.514, 468.897 411.079, 465.917 412.647 C 461.098 415.182, 459.506 415.492, 451.500 415.455 C 443.430 415.417, 441.876 415.091, 436.460 412.298 C 433.138 410.585, 428.120 407.115, 425.309 404.588 L 420.197 399.992 389.598 429.592 M 227.923 416.923 C 223.068 421.778, 224.397 429.537, 230.587 432.474 C 233.301 433.762, 237.269 433.996, 252.662 433.772 L 271.427 433.500 276.192 424.500 C 278.813 419.550, 280.967 415.163, 280.978 414.750 C 280.990 414.337, 269.715 414, 255.923 414 L 230.846 414 227.923 416.923 M 496.370 505.729 C 494.242 508.329, 492.598 510.761, 492.718 511.133 C 492.838 511.504, 492.189 512.414, 491.276 513.154 C 489.855 514.306, 489.739 514.284, 490.469 513 C 490.939 512.175, 490.125 512.591, 488.661 513.924 C 487.198 515.258, 486 516.565, 486 516.829 C 486 517.094, 486.900 516.495, 488 515.500 C 491.203 512.601, 490.314 514.904, 486.301 519.897 C 470.134 540.017, 452.676 555.299, 433.569 566.056 C 430.307 567.893, 428.018 568.780, 428.483 568.028 C 429.099 567.032, 428.899 566.825, 427.747 567.267 C 425.963 567.951, 424.754 565.805, 425.633 563.514 C 426.009 562.535, 425.293 561.682, 423.537 561.014 C 420.133 559.720, 419.721 559.740, 420.595 561.155 C 421.030 561.858, 420.871 562.038, 420.186 561.615 C 419.569 561.233, 417.100 561.815, 414.701 562.908 C 400.395 569.426, 385.375 574.218, 381.726 573.430 C 376.256 572.248, 358.256 564.752, 345 558.134 C 322.422 546.863, 302.411 533.407, 284.410 517.391 L 275.988 509.898 265.744 511.996 C 260.110 513.149, 251.715 514.410, 247.089 514.797 L 238.677 515.500 245.089 522.500 C 277.150 557.505, 323.502 586.402, 374.482 603.167 C 385.063 606.646, 384.984 606.657, 406 598.822 C 449.105 582.750, 489.366 557.108, 517.633 527.722 C 526.325 518.686, 539 503.175, 539 501.575 C 539 501.259, 530.279 501, 519.620 501 L 500.241 501 496.370 505.729 M 429.500 557 C 429.160 557.550, 429.610 558, 430.500 558 C 431.390 558, 431.840 557.550, 431.500 557 C 431.160 556.450, 430.710 556, 430.500 556 C 430.290 556, 429.840 556.450, 429.500 557 M 424.434 568.893 C 424.730 569.372, 423.516 570.482, 421.736 571.359 C 419.956 572.237, 419.085 572.965, 419.800 572.977 C 421.138 573.001, 427 570.236, 427 569.581 C 427 569.379, 426.302 568.946, 425.448 568.618 C 424.594 568.291, 424.138 568.415, 424.434 568.893" stroke="none" fill="black" fill-rule="evenodd"/>
	<path fill-opacity="0.151" d="M 224.582 202.868 C 224.263 203.383, 226.706 203.823, 230.153 203.872 C 233.529 203.919, 236.113 203.803, 235.896 203.614 C 234.852 202.708, 225.079 202.063, 224.582 202.868 M 200.744 209.399 C 200.050 210.093, 198.811 210.450, 197.991 210.193 C 197.171 209.936, 196.831 210.081, 197.234 210.514 C 197.638 210.948, 197.188 211.895, 196.234 212.619 C 195.075 213.500, 194.934 213.947, 195.809 213.968 C 196.529 213.986, 196.840 214.450, 196.500 215 C 196.160 215.550, 196.835 216, 198 216 C 199.365 216, 199.893 216.444, 199.485 217.250 C 199.137 217.938, 199.546 217.646, 200.394 216.603 C 201.242 215.559, 201.669 214.274, 201.343 213.746 C 201 213.191, 200.359 213.358, 199.821 214.143 C 199.128 215.156, 198.974 214.993, 199.215 213.500 C 199.421 212.223, 200.311 211.500, 201.678 211.500 C 202.856 211.500, 204.160 211.162, 204.576 210.750 C 204.993 210.338, 207.133 210, 209.333 210 C 214.802 210, 213.561 209.187, 207.211 208.610 C 203.785 208.299, 201.575 208.568, 200.744 209.399 M 205 214.631 C 205 215.345, 204.087 216.418, 202.972 217.015 C 201.857 217.612, 201.208 218.528, 201.531 219.050 C 202.431 220.506, 204 220.179, 204 218.535 C 204 216.663, 207.228 214.905, 208.838 215.900 C 209.583 216.360, 209.781 217.417, 209.340 218.580 C 208.652 220.394, 208.707 220.406, 210.342 218.786 C 211.981 217.161, 211.974 216.974, 210.202 215.202 C 208.053 213.053, 205 212.718, 205 214.631 M 190 215 C 190 215.550, 190.450 216, 191 216 C 191.550 216, 192 215.550, 192 215 C 192 214.450, 191.550 214, 191 214 C 190.450 214, 190 214.450, 190 215 M 189.952 218 C 189.848 218.825, 189.836 220.063, 189.925 220.750 C 190.124 222.280, 188.368 222.405, 187.455 220.927 C 187.046 220.265, 186.159 220.745, 185.146 222.177 C 183.645 224.295, 183.476 234.556, 183.233 338.462 C 182.943 462.431, 182.993 463.746, 188.488 475.753 C 191.493 482.320, 199.460 490.844, 205.835 494.314 C 214.554 499.059, 222.502 500.275, 241 499.694 C 259.899 499.100, 268.236 497.315, 281.844 490.947 C 301.003 481.981, 315.601 467.365, 328.733 444 C 330.433 440.975, 337.625 427.025, 344.714 413 C 373.448 356.159, 385.514 343.966, 449.612 307.002 C 456.273 303.161, 458.013 302.537, 459.346 303.511 C 460.239 304.164, 460.773 304.893, 460.535 305.132 C 459.845 305.822, 469.620 323.519, 470.583 323.325 C 471.060 323.229, 471.632 322.604, 471.855 321.936 C 472.077 321.268, 471.782 321.017, 471.199 321.377 C 470.615 321.738, 469.813 321.506, 469.415 320.862 C 468.963 320.131, 469.124 319.959, 469.845 320.405 C 470.491 320.803, 471.013 320.541, 471.030 319.809 C 471.049 319.001, 471.451 319.170, 472.080 320.250 C 472.731 321.368, 472.758 322.609, 472.155 323.687 C 471.255 325.295, 473.507 332.019, 474.935 331.988 C 475.246 331.981, 476.850 328.524, 478.500 324.307 C 482.301 314.592, 482.427 314.129, 480.703 316.250 C 479.920 317.212, 478.767 318, 478.140 318 C 477.513 318, 477 318.730, 477 319.622 C 477 320.866, 476.687 320.985, 475.658 320.131 C 474.920 319.519, 474.020 319.313, 473.658 319.675 C 472.743 320.590, 472.962 317.915, 474 315.500 C 474.820 313.592, 474.863 313.603, 474.930 315.750 C 475.002 318.073, 476.413 318.759, 477.500 317 C 477.840 316.450, 477.641 316, 477.059 316 C 476.477 316, 476 315.325, 476 314.500 C 476 312.463, 474.329 312.606, 473.080 314.750 C 472.162 316.327, 472.058 316.286, 472.030 314.333 C 472.014 313.142, 472.562 311.966, 473.250 311.720 C 473.938 311.475, 474.138 310.888, 473.696 310.416 C 473.253 309.944, 472.502 310.188, 472.026 310.959 C 470.922 312.745, 467.997 313.203, 467.485 311.671 C 467.270 311.027, 466.876 308.963, 466.608 307.084 C 466.340 305.196, 464.992 302.621, 463.596 301.326 C 461.976 299.824, 461.297 298.389, 461.705 297.328 C 462.056 296.412, 461.924 295.929, 461.409 296.247 C 460.897 296.564, 459.609 296.188, 458.548 295.411 C 457.486 294.635, 457.180 294, 457.868 294 C 458.555 294, 458.835 293.543, 458.490 292.984 C 458.144 292.425, 457.459 292.216, 456.967 292.520 C 455.799 293.242, 452 289.426, 452 287.531 C 452 286.569, 451.423 286.284, 450.326 286.705 C 449.105 287.174, 448.811 286.935, 449.239 285.821 C 449.570 284.958, 448.974 283.566, 447.870 282.620 C 446.710 281.627, 446.228 280.449, 446.684 279.723 C 447.234 278.849, 447.552 278.999, 447.800 280.250 C 448.308 282.817, 449.500 282.384, 449.500 279.633 L 449.500 277.265 444 280.334 C 436.779 284.363, 416.003 296.754, 408.461 301.529 C 395.935 309.460, 380.133 322.145, 370.959 331.632 C 354.617 348.534, 345.688 361.964, 332.482 389.500 C 308.695 439.103, 304.936 445.709, 291.733 461.107 C 288.269 465.147, 287.858 465.359, 286.623 463.750 C 285.884 462.788, 284.734 462, 284.068 462 C 283.273 462, 283.397 461.461, 284.429 460.429 C 286.430 458.427, 286.484 457.354, 284.500 459 C 283.260 460.029, 282.979 459.921, 282.882 458.372 C 282.816 457.343, 282.850 456.063, 282.956 455.528 C 283.061 454.993, 282.215 455.401, 281.074 456.433 C 278.986 458.323, 278.076 457.324, 280.070 455.330 C 280.830 454.570, 280.374 454.344, 278.494 454.550 C 276.410 454.779, 275.979 454.498, 276.467 453.226 C 276.979 451.890, 276.738 451.927, 275.067 453.440 C 273.956 454.445, 273.334 455.770, 273.684 456.384 C 274.034 456.998, 273.971 457.185, 273.543 456.799 C 273.115 456.414, 270.016 458.323, 266.656 461.042 C 251.168 473.575, 227.416 479.403, 215.966 473.482 C 214.391 472.668, 211.843 470.350, 210.302 468.331 L 207.500 464.659 206.980 423.080 C 206.693 400.211, 206.468 364.625, 206.480 344 L 206.500 306.500 212.853 305.893 C 219.115 305.294, 221.479 303.863, 220.521 301.250 C 220.269 300.563, 220.599 300, 221.254 300 C 221.909 300, 221.332 299.216, 219.973 298.258 C 218.613 297.300, 217.086 296.650, 216.581 296.814 C 216.075 296.978, 216.225 296.434, 216.913 295.604 C 218.683 293.472, 217.415 290.079, 215.078 290.690 C 214.059 290.956, 212.932 290.698, 212.572 290.116 C 212.201 289.515, 213.070 288.770, 214.585 288.389 C 216.836 287.824, 216.995 287.577, 215.605 286.799 C 214.699 286.292, 213.118 285.715, 212.092 285.518 C 211.066 285.320, 209.276 284.565, 208.113 283.839 C 206.057 282.554, 206 281.869, 206 258.259 C 206 242.753, 205.639 234, 205 234 C 204.450 234, 203.986 235.238, 203.968 236.750 C 203.939 239.238, 203.811 239.335, 202.619 237.766 C 201.895 236.812, 201.046 236.288, 200.732 236.601 C 199.938 237.395, 197.785 233.157, 198.443 232.093 C 198.737 231.617, 198.037 230.982, 196.888 230.681 C 195.655 230.358, 195.086 229.670, 195.500 229 C 195.914 228.330, 195.342 227.641, 194.101 227.316 C 192.945 227.014, 192 226.118, 192 225.324 C 192 224.531, 192.450 224.160, 193 224.500 C 193.550 224.840, 194 224.690, 194 224.166 C 194 223.642, 193.296 222.944, 192.437 222.614 C 191.577 222.284, 191.070 221.673, 191.311 221.257 C 191.553 220.841, 191.388 219.600, 190.945 218.500 C 190.378 217.090, 190.085 216.943, 189.952 218 M 204.593 219.618 C 203.756 221.799, 204.453 222.405, 206.488 221.267 C 207.907 220.473, 207.932 220.189, 206.680 219.149 C 205.526 218.191, 205.104 218.286, 204.593 219.618 M 215 229 C 213.750 229.808, 213.833 229.990, 215.500 230.091 C 219.080 230.308, 223.281 229.833, 225.413 228.971 C 226.933 228.356, 226.005 228.114, 222 228.079 C 218.975 228.052, 215.825 228.467, 215 229 M 454.507 273.989 C 454.157 274.555, 454.558 274.723, 455.448 274.382 C 457.180 273.717, 457.497 273, 456.059 273 C 455.541 273, 454.843 273.445, 454.507 273.989 M 443.507 281.989 C 443.157 282.555, 443.558 282.723, 444.448 282.382 C 446.180 281.717, 446.497 281, 445.059 281 C 444.541 281, 443.843 281.445, 443.507 281.989 M 451 281.299 C 451 282.215, 455.027 284.765, 455.434 284.107 C 455.711 283.659, 454.826 282.786, 453.469 282.168 C 452.111 281.549, 451 281.158, 451 281.299 M 486.079 296.583 C 486.127 297.748, 486.364 297.985, 486.683 297.188 C 486.972 296.466, 486.936 295.603, 486.604 295.271 C 486.272 294.939, 486.036 295.529, 486.079 296.583 M 463.583 297.866 C 463.152 298.563, 463.070 299.403, 463.400 299.733 C 464.295 300.628, 465.271 299.312, 464.787 297.862 C 464.449 296.846, 464.213 296.846, 463.583 297.866 M 222.500 303 C 222.160 303.550, 222.332 304, 222.882 304 C 223.432 304, 224.160 303.550, 224.500 303 C 224.840 302.450, 224.668 302, 224.118 302 C 223.568 302, 222.840 302.450, 222.500 303 M 468.603 310.833 C 468.320 311.292, 468.723 311.667, 469.500 311.667 C 470.277 311.667, 470.680 311.292, 470.397 310.833 C 470.114 310.375, 469.710 310, 469.500 310 C 469.290 310, 468.886 310.375, 468.603 310.833 M 464.564 312.293 C 464.940 313.279, 465.499 313.834, 465.807 313.526 C 466.115 313.219, 465.808 312.412, 465.124 311.733 C 464.136 310.753, 464.022 310.868, 464.564 312.293 M 480 312.833 C 480 313.292, 480.655 313.667, 481.456 313.667 C 482.257 313.667, 482.680 313.292, 482.397 312.833 C 482.114 312.375, 481.459 312, 480.941 312 C 480.423 312, 480 312.375, 480 312.833 M 230.161 336.705 C 225.927 338.773, 224.649 341.982, 226.024 347.091 C 227.602 352.951, 231.061 354.357, 241.885 353.542 C 246.623 353.185, 252.188 352.844, 254.250 352.784 C 258.321 352.667, 259.744 350.012, 255.750 349.985 C 254.134 349.974, 253.876 349.731, 254.835 349.123 C 256.823 347.863, 254.604 343.539, 252.595 344.759 C 252.098 345.062, 251.937 344.902, 252.238 344.405 C 252.855 343.383, 248.359 336.418, 247.231 336.650 C 246.829 336.733, 246.573 336.507, 246.663 336.150 C 247.039 334.652, 233.428 335.110, 230.161 336.705 M 396.543 361.468 L 388.587 368.843 395.840 375.559 C 399.830 379.252, 402.960 382.833, 402.797 383.516 C 402.634 384.199, 390.846 396.047, 376.602 409.845 L 350.704 434.932 344.715 446.216 C 337.573 459.671, 332.862 466.830, 324.240 477.330 L 317.810 485.160 435.155 484.848 C 536.328 484.579, 567.376 484.124, 558.500 483.040 C 557.180 482.878, 557.690 482.502, 560 481.932 C 561.925 481.457, 564.086 481.273, 564.802 481.523 C 565.518 481.773, 565.829 481.532, 565.493 480.989 C 565.157 480.445, 562.744 480, 560.131 480 C 556.137 480, 554.859 479.491, 552.117 476.810 C 549.427 474.180, 548.679 473.872, 547.861 475.060 C 547.124 476.130, 547.032 475.920, 547.503 474.245 C 547.940 472.693, 547.649 471.803, 546.569 471.388 C 545.706 471.057, 545 469.799, 545 468.593 C 545 465.878, 543.249 464.032, 540.550 463.900 C 538.826 463.817, 538.898 463.688, 541 463.090 C 542.375 462.699, 506.150 462.243, 460.500 462.075 C 414.850 461.908, 373.034 461.485, 367.575 461.135 L 357.649 460.500 387.885 431.006 C 404.515 414.784, 418.746 401.162, 419.509 400.735 C 420.439 400.215, 422.480 401.436, 425.698 404.438 C 433.484 411.700, 439.936 414.438, 450.240 414.849 C 458.250 415.169, 459.501 414.950, 465.240 412.222 C 468.683 410.585, 473.975 406.911, 477 404.057 C 480.025 401.203, 481.868 399.193, 481.095 399.589 C 480.166 400.065, 479.936 399.913, 480.415 399.138 C 480.813 398.494, 481.491 398.185, 481.922 398.452 C 482.353 398.718, 483.559 398.290, 484.603 397.500 C 486.339 396.186, 486.351 396.061, 484.750 396.032 C 483.787 396.014, 483.053 395.663, 483.118 395.250 C 483.630 392.012, 480.467 390.421, 479.823 393.593 C 479.578 394.799, 478.989 394.491, 477.392 392.325 C 475.801 390.166, 475.497 388.890, 476.152 387.118 C 476.829 385.288, 477.318 385.019, 478.373 385.895 C 479.457 386.795, 479.710 386.469, 479.645 384.259 C 479.593 382.498, 480.031 381.599, 480.856 381.775 C 481.634 381.940, 481.854 381.573, 481.408 380.852 C 481.001 380.193, 480.353 377.932, 479.968 375.827 C 479.425 372.854, 479.587 372, 480.693 372 C 481.477 372, 481.822 371.521, 481.460 370.935 C 481.028 370.236, 480.155 370.455, 478.924 371.569 C 477.892 372.503, 477.295 373.668, 477.598 374.158 C 477.901 374.649, 477.778 374.929, 477.324 374.783 C 476.182 374.412, 472.714 377.145, 471.464 379.400 C 470.894 380.428, 469.994 381.247, 469.464 381.220 C 468.152 381.152, 465.930 383.075, 466.409 383.863 C 466.622 384.213, 464.797 386.030, 462.353 387.901 C 456.440 392.428, 450.112 393.114, 444.805 389.804 C 442.773 388.537, 433.482 379.962, 424.157 370.750 C 414.832 361.538, 406.595 354.021, 405.852 354.046 C 405.108 354.072, 400.920 357.411, 396.543 361.468 M 230.383 375.519 C 223.628 378.991, 223.265 388.660, 229.759 392.140 C 232.485 393.601, 244.071 393.843, 273.788 393.060 C 287.887 392.688, 290.034 392.420, 289.770 391.065 C 289.538 389.876, 288.231 389.517, 284.326 389.572 L 279.188 389.643 280.827 387.072 C 282.287 384.780, 282.292 384.637, 280.869 385.760 C 279.502 386.838, 279.293 386.694, 279.416 384.760 C 279.499 383.466, 278.479 381.539, 277.030 380.251 L 274.500 378.002 281.500 377.876 L 288.500 377.750 283 376.915 C 274.199 375.579, 268.564 375.163, 250.500 374.521 C 236.050 374.007, 233.033 374.157, 230.383 375.519 M 471 385.059 C 471 385.641, 471.450 385.840, 472 385.500 C 473.482 384.584, 473.212 385.645, 471.537 387.321 C 470.252 388.605, 470.359 388.767, 472.409 388.642 C 473.830 388.556, 474.557 388.011, 474.265 387.250 C 474.002 386.563, 474.284 386, 474.893 386 C 475.502 386, 476 385.550, 476 385 C 476 384.450, 474.875 384, 473.500 384 C 472.125 384, 471 384.477, 471 385.059 M 468 386 C 468 386.550, 468.477 387, 469.059 387 C 469.641 387, 469.840 386.550, 469.500 386 C 469.160 385.450, 468.684 385, 468.441 385 C 468.198 385, 468 385.450, 468 386 M 477.638 390.500 C 477.955 391.325, 478.616 392, 479.107 392 C 479.598 392, 480 391.325, 480 390.500 C 480 389.675, 479.339 389, 478.531 389 C 477.637 389, 477.288 389.586, 477.638 390.500 M 472 390.565 C 472 390.875, 473.384 392.294, 475.077 393.718 C 476.992 395.329, 477.982 396.962, 477.699 398.043 C 477.114 400.282, 478.467 402.672, 479.434 401.107 C 479.810 400.498, 479.684 400, 479.153 400 C 478.622 400, 478.371 399.212, 478.595 398.250 C 478.825 397.266, 477.696 395.078, 476.016 393.250 C 473.143 390.125, 472 389.361, 472 390.565 M 484.569 401.076 C 486.694 403.425, 486.889 403.449, 486.578 401.333 C 486.444 400.416, 485.545 399.550, 484.580 399.409 C 482.914 399.164, 482.913 399.246, 484.569 401.076 M 488.500 403 C 488.840 403.550, 489.541 404, 490.059 404 C 490.577 404, 491 403.550, 491 403 C 491 402.450, 490.298 402, 489.441 402 C 488.584 402, 488.160 402.450, 488.500 403 M 491.504 406.993 C 491.280 407.356, 494.096 410.544, 497.762 414.077 C 501.429 417.609, 503.545 419.422, 502.464 418.104 L 500.500 415.709 502.652 416.837 C 504.552 417.833, 504.743 417.733, 504.285 415.983 C 504 414.892, 503.032 413.993, 502.133 413.985 C 500.713 413.971, 500.696 413.843, 502 413 C 503.203 412.222, 503.036 412.028, 501.156 412.015 C 499.662 412.006, 498.623 411.276, 498.290 410 C 497.993 408.866, 496.926 408, 495.824 408 C 494.756 408, 494.114 407.625, 494.397 407.167 C 494.680 406.708, 494.237 406.333, 493.412 406.333 C 492.587 406.333, 491.728 406.630, 491.504 406.993 M 493.500 409 C 494.495 410.100, 495.535 411, 495.810 411 C 496.085 411, 495.495 410.100, 494.500 409 C 493.505 407.900, 492.465 407, 492.190 407 C 491.915 407, 492.505 407.900, 493.500 409 M 230.110 415.396 C 225.033 418.210, 223.565 424.906, 227.054 429.341 C 230.153 433.281, 234.620 433.918, 253.960 433.173 L 271.420 432.500 274.672 426.711 C 276.461 423.527, 278.216 419.364, 278.573 417.461 L 279.223 414 255.861 414.035 C 238.395 414.062, 231.897 414.405, 230.110 415.396 M 533 417.500 C 534.292 418.875, 535.574 420, 535.849 420 C 536.124 420, 535.292 418.875, 534 417.500 C 532.708 416.125, 531.426 415, 531.151 415 C 530.876 415, 531.708 416.125, 533 417.500 M 509.612 423.819 C 509.333 424.269, 514.144 429.657, 520.303 435.791 C 529.300 444.753, 531.795 446.735, 533 445.878 C 534.293 444.959, 534.274 444.883, 532.865 445.330 C 531.881 445.642, 530.114 444.685, 528.428 442.925 C 526.887 441.316, 526.160 440, 526.813 440 C 527.466 440, 528 439.522, 528 438.937 C 528 438.353, 527.169 438.015, 526.154 438.187 C 523.427 438.649, 521.115 436.306, 521.739 433.713 C 522.174 431.906, 522.028 431.728, 520.943 432.743 C 519.107 434.460, 515.010 430.679, 515.728 427.931 C 516.006 426.869, 515.731 426, 515.117 426 C 514.502 426, 514 426.520, 514 427.155 C 514 427.815, 513.152 427.543, 512.024 426.521 C 510.937 425.538, 510.288 424.343, 510.583 423.866 C 510.877 423.390, 510.893 423, 510.618 423 C 510.343 423, 509.890 423.369, 509.612 423.819 M 286.667 437.667 C 286.300 438.033, 286 439.103, 286 440.045 C 286 440.986, 284.995 442.423, 283.766 443.239 C 281.589 444.685, 281.614 444.710, 284.766 444.248 C 287.681 443.820, 288 443.439, 288 440.387 C 288 436.901, 287.813 436.520, 286.667 437.667 M 280.500 449 C 280.160 449.550, 280.359 450, 280.941 450 C 281.523 450, 282 449.550, 282 449 C 282 448.450, 281.802 448, 281.559 448 C 281.316 448, 280.840 448.450, 280.500 449 M 537.543 450.931 C 537.226 451.443, 537.350 452.098, 537.817 452.387 C 538.284 452.676, 538.667 452.257, 538.667 451.456 C 538.667 449.770, 538.351 449.623, 537.543 450.931 M 542.403 456.718 C 545.128 459.732, 547 460.196, 547 457.858 C 547 457.294, 546.438 457.039, 545.750 457.289 C 545.063 457.540, 543.375 456.792, 542 455.626 C 539.995 453.927, 540.075 454.143, 542.403 456.718 M 567.507 479.989 C 567.157 480.555, 567.558 480.723, 568.448 480.382 C 570.180 479.717, 570.497 479, 569.059 479 C 568.541 479, 567.843 479.445, 567.507 479.989 M 500.250 502.772 C 498.064 504.451, 498.193 504.487, 504.750 504.033 C 509.578 503.700, 510.426 503.469, 507.729 503.222 C 505.655 503.032, 504.219 502.454, 504.538 501.938 C 505.504 500.375, 502.649 500.930, 500.250 502.772 M 495.862 508.115 C 495.118 509.427, 494.486 511.175, 494.458 512 C 494.430 512.825, 493.908 513.402, 493.299 513.282 C 492.690 513.162, 490.256 515.637, 487.889 518.782 C 481.996 526.613, 466.013 543.006, 457.351 550.105 C 438.668 565.416, 415.865 577.426, 396.797 581.997 C 387.331 584.266, 368.617 584.807, 367.405 582.845 C 366.984 582.165, 367.128 581.961, 367.755 582.349 C 368.341 582.710, 369.573 582.717, 370.494 582.364 C 371.831 581.851, 371.899 581.548, 370.834 580.858 C 369.923 580.268, 370.292 580.074, 372 580.247 C 373.852 580.434, 374.464 580.046, 374.361 578.750 C 374.285 577.788, 374.735 576.943, 375.361 576.872 C 375.988 576.802, 377.542 576.637, 378.817 576.506 C 382.816 576.093, 383.116 574.516, 379.248 574.235 C 377.243 574.089, 374.567 573.291, 373.302 572.462 C 372.036 571.633, 370.993 571.302, 370.985 571.727 C 370.976 572.152, 370.639 572.018, 370.235 571.430 C 369.831 570.841, 367.925 569.710, 366 568.917 C 357.876 565.568, 329.744 550.640, 320.485 544.765 C 307.210 536.341, 293.267 525.803, 283.750 517.001 L 276 509.833 269.750 511.384 C 262.124 513.277, 251.375 514.887, 244.015 515.238 L 238.529 515.500 249.015 526.400 C 280.905 559.553, 326.304 587.152, 375.750 603.446 L 384 606.164 392.250 603.447 C 432.714 590.119, 470.671 569.173, 499.817 544.089 C 503.919 540.558, 506.748 537.401, 506.365 536.782 C 505.962 536.129, 506.154 535.977, 506.845 536.405 C 507.480 536.797, 508 536.615, 508 536 C 508 535.385, 508.375 535.114, 508.833 535.397 C 509.292 535.680, 509.742 535.369, 509.835 534.706 C 510.677 528.657, 510.890 525.707, 510.410 526.750 C 509.529 528.661, 508 528.238, 508 526.083 C 508 525.029, 507.663 523.978, 507.250 523.747 C 506.837 523.517, 507.063 523.465, 507.750 523.633 C 508.438 523.800, 509 523.463, 509 522.882 C 509 521.293, 502.778 515.019, 501.801 515.623 C 501.333 515.912, 501.074 515.612, 501.225 514.957 C 501.376 514.302, 500.677 513.628, 499.672 513.460 C 495.006 512.679, 492.936 510, 497 510 C 499.173 510, 499.452 509.262, 498.092 507.115 C 497.399 506.020, 496.931 506.230, 495.862 508.115 M 501 518 C 501.825 518.533, 502.950 518.969, 503.500 518.969 C 504.050 518.969, 503.825 518.533, 503 518 C 502.175 517.467, 501.050 517.031, 500.500 517.031 C 499.950 517.031, 500.175 517.467, 501 518 M 510 519.378 C 510 519.585, 510.788 520.373, 511.750 521.128 C 513.336 522.371, 513.371 522.336, 512.128 520.750 C 510.821 519.084, 510 518.555, 510 519.378 M 516 521.910 C 516 522.545, 516.940 523.412, 518.088 523.837 C 519.965 524.531, 520.016 524.742, 518.588 525.927 C 517.307 526.990, 517 526.996, 517 525.956 C 517 525.247, 516.730 524.937, 516.400 525.267 C 516.070 525.597, 516.117 526.381, 516.505 527.009 C 516.989 527.791, 517.955 527.451, 519.575 525.930 C 521.788 523.850, 522.030 521.245, 519.887 522.570 C 519.351 522.901, 518.257 522.628, 517.456 521.964 C 516.386 521.076, 516 521.062, 516 521.910 M 513.079 528.691 C 512.965 530.412, 514.735 531.239, 515.585 529.862 C 516.017 529.164, 515.877 528.958, 515.240 529.352 C 514.652 529.715, 513.943 529.447, 513.664 528.756 C 513.302 527.857, 513.135 527.839, 513.079 528.691" stroke="none" fill="black" fill-rule="evenodd"/>
	<path fill-opacity="1.000" d="M 183.500 386 C 183.648 450.924, 183.861 460.232, 185.327 465.769 C 191.472 488.992, 207.364 499.932, 235.026 499.983 C 258.264 500.025, 278.360 494.624, 293.668 484.223 C 312.443 471.466, 321.695 458.536, 344.287 413.482 C 361.909 378.341, 369.903 366.242, 385.852 350.575 C 389.730 346.767, 392.692 343.310, 392.435 342.894 C 392.178 342.479, 392.494 341.813, 393.138 341.415 C 393.869 340.963, 394.041 341.124, 393.595 341.845 C 392.396 343.786, 394.573 343.129, 396.539 340.957 C 398.342 338.965, 398.340 338.930, 396.444 339.551 C 394.963 340.037, 394.835 339.950, 395.909 339.187 C 396.684 338.636, 397.809 338.354, 398.409 338.560 C 399.009 338.766, 400.781 337.885, 402.347 336.603 L 405.194 334.271 400.117 334.432 C 397.325 334.520, 395.503 334.307, 396.068 333.958 C 396.716 333.558, 396.546 332.868, 395.607 332.089 C 394.788 331.409, 394.367 330.207, 394.671 329.416 C 395.060 328.402, 394.738 328.163, 393.582 328.607 C 392.588 328.988, 392.155 329.912, 392.483 330.947 C 392.893 332.239, 392.131 332.931, 389.359 333.782 C 386.833 334.557, 386.027 334.573, 386.768 333.832 C 387.360 333.240, 387.606 332.136, 387.315 331.378 C 386.975 330.493, 387.495 330, 388.771 330 C 389.862 330, 391.315 329.325, 392 328.500 C 393.189 327.067, 392.663 326.529, 390.500 326.965 C 389.950 327.076, 389.834 326.833, 390.241 326.425 C 390.649 326.018, 390.424 324.994, 389.741 324.150 C 388.968 323.195, 388.929 322.873, 389.637 323.297 C 390.262 323.672, 391.387 323.195, 392.137 322.239 C 393.329 320.718, 393.307 320.650, 391.966 321.693 C 391.106 322.362, 389.863 322.533, 389.133 322.082 C 388.131 321.463, 388.235 321.124, 389.583 320.606 C 390.880 320.109, 391.043 319.643, 390.210 318.810 C 389.376 317.976, 388.726 317.983, 387.700 318.834 C 386.939 319.466, 386.015 319.682, 385.648 319.314 C 384.682 318.349, 378.952 324.113, 379.690 325.308 C 380.055 325.898, 379.800 325.994, 379.068 325.542 C 377.504 324.576, 373.029 328.778, 363.399 340.257 C 349.671 356.619, 340.415 372.298, 326.369 402.983 C 311.635 435.173, 303.086 449.571, 291.273 462.094 C 284.239 469.550, 271.812 478.428, 262.917 482.352 C 257.441 484.768, 249.957 486.804, 251.144 485.556 C 251.841 484.823, 247.443 480, 246.077 480 C 245.619 480, 244.608 479.043, 243.832 477.873 C 242.533 475.917, 241.613 475.760, 232.347 475.920 C 220.573 476.123, 215.622 474.611, 211.067 469.424 C 209.440 467.571, 207.637 464.355, 207.060 462.277 C 206.384 459.843, 206.009 437.912, 206.006 400.583 C 206.003 368.729, 205.800 342.867, 205.555 343.112 C 205.310 343.356, 205.012 347.594, 204.892 352.528 C 204.560 366.201, 204.004 370, 202.336 370 C 201.536 370, 201.160 369.550, 201.500 369 C 201.840 368.450, 201.641 368, 201.059 368 C 200.010 368, 199.679 369.097, 199.852 372 C 199.913 373.016, 199.762 373.095, 199.385 372.244 C 199.080 371.553, 198.418 371.242, 197.915 371.553 C 197.412 371.864, 197 371.641, 197 371.059 C 197 370.477, 197.505 370, 198.122 370 C 198.854 370, 198.767 369.411, 197.872 368.308 C 196.691 366.851, 196.709 366.723, 198 367.382 C 198.868 367.825, 198.762 367.544, 197.750 366.714 C 195.397 364.785, 195.545 364.068, 198.156 364.751 C 199.649 365.141, 200.089 364.954, 199.587 364.141 C 199.188 363.496, 198.443 363.226, 197.931 363.543 C 197.419 363.859, 197 363.416, 197 362.559 C 197 361.702, 196.523 361, 195.941 361 C 195.359 361, 195.160 361.450, 195.500 362 C 196.443 363.526, 195.249 363.194, 193.063 361.322 C 191.985 360.399, 191.291 359.338, 191.522 358.964 C 191.753 358.590, 191.550 356.916, 191.070 355.244 C 190.497 353.245, 190.575 351.825, 191.299 351.101 C 192.100 350.300, 192.083 350, 191.235 350 C 190.595 350, 189.568 350.939, 188.954 352.086 C 187.794 354.254, 186.765 354.005, 186.392 351.466 C 186.273 350.655, 186.586 350.244, 187.088 350.554 C 187.590 350.864, 188 350.641, 188 350.059 C 188 349.477, 187.550 349, 187 349 C 186.409 349, 185.931 344.805, 185.832 338.750 C 185.728 332.403, 185.446 330.023, 185.093 332.500 C 184.710 335.185, 184.326 332.556, 183.927 324.500 C 183.600 317.900, 183.408 345.575, 183.500 386 M 387.405 317.233 C 386.157 318.696, 386.060 319.035, 387.123 318.216 C 388.016 317.528, 389.366 317.125, 390.123 317.319 C 390.880 317.513, 391.160 317.483, 390.744 317.251 C 390.328 317.019, 390.242 316.418, 390.553 315.915 C 391.707 314.047, 389.243 315.079, 387.405 317.233 M 185.195 323.500 C 185.215 325.150, 185.439 325.704, 185.693 324.731 C 185.947 323.758, 185.930 322.408, 185.656 321.731 C 185.382 321.054, 185.175 321.850, 185.195 323.500 M 384.667 324.667 C 383.516 325.817, 383.938 327, 385.500 327 C 386.325 327, 387 326.325, 387 325.500 C 387 323.938, 385.817 323.516, 384.667 324.667 M 388.500 332 C 388.840 332.550, 389.316 333, 389.559 333 C 389.802 333, 390 332.550, 390 332 C 390 331.450, 389.523 331, 388.941 331 C 388.359 331, 388.160 331.450, 388.500 332 M 226.667 338.667 C 226.300 339.033, 226 339.798, 226 340.367 C 226 340.993, 226.466 340.934, 227.183 340.217 C 227.834 339.566, 228.134 338.801, 227.850 338.517 C 227.566 338.233, 227.033 338.300, 226.667 338.667 M 226.202 345.255 C 226.134 347.045, 226.436 349.088, 226.873 349.794 C 227.337 350.545, 227.667 349.191, 227.667 346.539 C 227.667 341.388, 226.389 340.268, 226.202 345.255 M 187.813 355.683 C 188.534 355.972, 189.397 355.936, 189.729 355.604 C 190.061 355.272, 189.471 355.036, 188.417 355.079 C 187.252 355.127, 187.015 355.364, 187.813 355.683 M 400.173 358.291 C 399.356 359.276, 399.623 359.607, 401.301 359.689 C 402.510 359.748, 402.935 359.579, 402.244 359.313 C 401.553 359.047, 401.242 358.418, 401.553 357.915 C 402.402 356.541, 401.399 356.815, 400.173 358.291 M 393.099 365.395 C 391.351 367.255, 391.145 367.960, 392.175 368.555 C 392.904 368.976, 393.166 368.952, 392.759 368.502 C 391.897 367.551, 393.876 364.805, 394.947 365.467 C 395.343 365.712, 395.667 365.257, 395.667 364.456 C 395.667 362.603, 395.751 362.572, 393.099 365.395 M 397.049 376.550 C 402.053 381.617, 404.708 383.763, 402.131 380.658 C 401.519 379.920, 401.238 379.020, 401.509 378.658 C 401.779 378.296, 401.696 378.229, 401.324 378.509 C 400.423 379.188, 396 374.978, 396 373.442 C 396 372.777, 395.025 371.978, 393.834 371.667 C 392.281 371.261, 393.192 372.644, 397.049 376.550 M 228.882 376.761 C 228.816 377.167, 228.816 377.837, 228.882 378.250 C 228.947 378.663, 228.438 378.887, 227.750 378.750 C 226.909 378.582, 226.402 380.181, 226.202 383.639 C 225.941 388.125, 226.223 389.030, 228.416 390.755 C 230.036 392.030, 232.096 392.627, 234.215 392.435 C 236.022 392.272, 240.836 391.884, 244.914 391.572 C 255.076 390.796, 255.077 390.007, 244.917 389.968 C 237.481 389.940, 236.716 389.773, 238.350 388.535 C 240.701 386.754, 239.700 385.012, 236.749 385.751 C 234.615 386.285, 234.585 386.216, 236.157 384.407 C 237.575 382.774, 237.611 382.315, 236.407 381.211 C 233.748 378.773, 235.014 378, 241.667 378 C 245.333 378, 248.146 377.838, 247.917 377.639 C 247.050 376.889, 228.995 376.056, 228.882 376.761 M 228 382 C 228 382.550, 228.477 383, 229.059 383 C 229.641 383, 229.840 382.550, 229.500 382 C 229.160 381.450, 228.684 381, 228.441 381 C 228.198 381, 228 381.450, 228 382 M 394.954 392.546 C 391.992 395.546, 389.952 398, 390.422 398 C 390.891 398, 389.576 399.350, 387.500 401 C 385.424 402.650, 384.124 404.002, 384.612 404.004 C 385.101 404.006, 384.150 404.846, 382.500 405.871 C 380.850 406.896, 373.123 413.876, 365.328 421.382 C 352.642 433.599, 350.598 436.050, 345.828 444.765 C 342.898 450.119, 340.319 454.950, 340.098 455.500 C 338.628 459.158, 322.314 481.070, 319.993 482.505 C 319.429 482.853, 319.226 483.557, 319.543 484.069 C 319.892 484.635, 352.968 484.910, 403.809 484.771 C 449.839 484.645, 477.938 484.411, 466.250 484.251 C 453.025 484.070, 445 483.585, 445 482.966 C 445 482.403, 446.347 482.209, 448.108 482.519 C 449.817 482.820, 451.836 482.551, 452.595 481.921 C 453.354 481.292, 454.584 481.010, 455.328 481.296 C 456.072 481.581, 457.316 481.413, 458.091 480.923 C 459.046 480.318, 458.132 480.026, 455.250 480.015 C 450.823 479.999, 447.080 477.485, 446.513 474.146 C 446.360 473.241, 445.698 472.624, 445.043 472.775 C 444.388 472.926, 444.141 472.581, 444.495 472.008 C 444.849 471.436, 445.557 471.226, 446.069 471.543 C 446.581 471.859, 447 471.679, 447 471.142 C 447 470.606, 446.663 469.978, 446.250 469.747 C 445.837 469.517, 446.030 469.452, 446.677 469.604 C 448.146 469.950, 452.982 467.764, 452.992 466.750 C 452.996 466.338, 452.663 466.053, 452.250 466.118 C 450.199 466.442, 449 465.857, 449 464.532 C 449 463.342, 451.229 463.003, 460.750 462.747 C 467.212 462.573, 446.738 462.333, 415.250 462.215 C 372.515 462.055, 358 461.705, 358 460.837 C 358 460.197, 364.517 453.391, 372.482 445.712 C 380.447 438.034, 386.721 431.357, 386.423 430.876 C 386.126 430.394, 386.379 430, 386.986 430 C 388.320 430, 393.071 425.404, 392.415 424.749 C 392.160 424.494, 392.724 423.658, 393.668 422.893 C 395.155 421.686, 395.272 421.700, 394.545 423 C 394.084 423.825, 395.572 422.721, 397.853 420.547 C 402.269 416.337, 403.503 414.417, 399.750 417.595 L 397.500 419.500 399.344 417.317 C 400.358 416.117, 401.821 415.378, 402.594 415.674 C 404.833 416.533, 404.221 414.189, 401.879 412.935 C 400.389 412.138, 399.961 412.127, 400.438 412.900 C 401.391 414.441, 398.757 414.274, 396.540 412.653 C 395.263 411.719, 395.051 411.087, 395.849 410.594 C 397.722 409.436, 397.231 406.990, 395.250 407.613 C 393.640 408.119, 393.632 408.054, 395.145 406.798 C 397.144 405.139, 395.766 402.695, 392.194 401.561 C 390.347 400.975, 390.126 400.553, 391.070 399.416 C 391.716 398.637, 391.910 398, 391.500 398 C 391.090 398, 391.320 397.319, 392.010 396.488 C 393.009 395.284, 393.565 395.224, 394.730 396.191 C 395.946 397.200, 396.136 397.051, 395.847 395.311 C 395.425 392.760, 398.651 388.929, 400.594 389.674 C 401.367 389.971, 402 389.742, 402 389.166 C 402 386.517, 399.926 387.512, 394.954 392.546 M 413.761 402.831 C 414.700 403.427, 414.401 404.214, 412.585 405.920 C 411.180 407.240, 409.638 407.895, 408.944 407.466 C 408.172 406.988, 407.920 407.219, 408.243 408.111 C 408.519 408.875, 407.800 410.625, 406.644 412 C 405.488 413.375, 407.100 412.061, 410.225 409.080 C 415.537 404.013, 416.535 401.979, 413.691 402.015 C 412.826 402.026, 412.845 402.250, 413.761 402.831 M 393 405 C 393 405.550, 393.450 406, 394 406 C 394.550 406, 395 405.550, 395 405 C 395 404.450, 394.550 404, 394 404 C 393.450 404, 393 404.450, 393 405 M 435 409 C 435 409.550, 435.477 410, 436.059 410 C 436.641 410, 436.840 409.550, 436.500 409 C 436.160 408.450, 435.684 408, 435.441 408 C 435.198 408, 435 408.450, 435 409 M 391 409.378 C 391 409.585, 391.788 410.373, 392.750 411.128 C 394.336 412.371, 394.371 412.336, 393.128 410.750 C 391.821 409.084, 391 408.555, 391 409.378 M 231.500 414.899 C 225.236 417.609, 223.508 426.460, 228.419 430.684 C 231.051 432.948, 231.542 432.996, 250.306 432.801 C 260.863 432.692, 266.223 432.447, 262.218 432.257 C 257.700 432.042, 255.171 431.532, 255.555 430.912 C 255.894 430.362, 255.674 429.312, 255.065 428.578 C 254.342 427.707, 254.270 426.419, 254.859 424.872 C 255.883 422.178, 253.870 419.452, 251.522 420.353 C 250.272 420.833, 247.458 418.538, 247.530 417.096 C 247.546 416.768, 246.983 416.632, 246.280 416.794 C 245.576 416.955, 245 416.730, 245 416.294 C 245 415.857, 243.988 415.440, 242.750 415.366 C 241.512 415.292, 238.925 414.962, 237 414.632 C 235.075 414.303, 232.600 414.423, 231.500 414.899 M 259.100 424.705 C 259.829 425.917, 260.640 426.694, 260.903 426.431 C 261.166 426.168, 260.570 425.176, 259.579 424.226 C 257.857 422.577, 257.835 422.598, 259.100 424.705 M 270.136 428.191 C 269.937 432.127, 271.379 432.350, 273.400 428.696 L 275.167 425.500 273.179 427.949 L 271.191 430.398 270.732 427.949 C 270.283 425.555, 270.269 425.560, 270.136 428.191 M 433.813 463.683 C 434.534 463.972, 435.397 463.936, 435.729 463.604 C 436.061 463.272, 435.471 463.036, 434.417 463.079 C 433.252 463.127, 433.015 463.364, 433.813 463.683 M 437.510 464.016 C 437.856 464.575, 438.670 464.714, 439.319 464.324 C 440.065 463.877, 440.018 464.211, 439.193 465.229 C 438.058 466.630, 438.157 466.772, 439.943 466.305 C 442.912 465.528, 442.528 463, 439.441 463 C 437.962 463, 437.147 463.429, 437.510 464.016 M 444.750 463.662 C 445.438 463.940, 446.563 463.940, 447.250 463.662 C 447.938 463.385, 447.375 463.158, 446 463.158 C 444.625 463.158, 444.063 463.385, 444.750 463.662 M 260.526 465.959 C 260.167 466.539, 260.596 467.292, 261.480 467.631 C 263.680 468.475, 264.364 467.547, 262.613 466.094 C 261.628 465.276, 260.974 465.234, 260.526 465.959 M 441.510 470.016 C 441.856 470.575, 442.557 470.774, 443.069 470.457 C 444.456 469.600, 444.198 469, 442.441 469 C 441.584 469, 441.165 469.457, 441.510 470.016 M 448.544 470.928 C 448.227 471.442, 448.425 472.144, 448.984 472.490 C 449.543 472.835, 450 472.780, 450 472.368 C 450 471.955, 450.645 472.491, 451.433 473.559 C 452.653 475.212, 453.061 475.293, 454.183 474.103 C 455.123 473.106, 455.142 472.908, 454.250 473.412 C 453.563 473.800, 453 473.657, 453 473.094 C 453 471.613, 449.248 469.789, 448.544 470.928 M 446 479.059 C 446 479.641, 446.450 479.840, 447 479.500 C 447.550 479.160, 448 478.684, 448 478.441 C 448 478.198, 447.550 478, 447 478 C 446.450 478, 446 478.477, 446 479.059 M 462.264 480.718 C 463.784 480.947, 466.034 480.941, 467.264 480.704 C 468.494 480.467, 467.250 480.279, 464.500 480.286 C 461.750 480.294, 460.744 480.488, 462.264 480.718 M 489.269 484.693 C 490.242 484.947, 491.592 484.930, 492.269 484.656 C 492.946 484.382, 492.150 484.175, 490.500 484.195 C 488.850 484.215, 488.296 484.439, 489.269 484.693 M 265 512.604 C 259.225 513.843, 252.475 514.942, 250 515.047 C 247.525 515.151, 244.150 515.533, 242.500 515.895 L 239.500 516.553 251.500 528.600 C 283.914 561.141, 323.227 584.999, 372.244 601.876 L 383.989 605.919 397.196 601.396 C 411.007 596.665, 425.330 590.828, 435.500 585.784 C 448.063 579.555, 457.900 573.647, 457.307 572.688 C 456.967 572.138, 457.192 572.001, 457.809 572.382 C 458.424 572.762, 459.955 572.044, 461.211 570.786 C 462.467 569.529, 464.171 568.454, 464.997 568.397 C 466.345 568.304, 477 562.228, 477 561.552 C 477 561.400, 475.406 561.451, 473.457 561.666 C 470.036 562.043, 467 560.411, 467 558.194 C 467 557.672, 466.294 556.659, 465.430 555.942 C 464.567 555.226, 464.082 553.793, 464.353 552.759 C 464.638 551.669, 464.234 550.643, 463.393 550.320 C 462.475 549.968, 462.168 549.046, 462.559 547.814 C 462.983 546.477, 461.186 547.480, 456.839 551.006 C 439.773 564.845, 417.543 576.813, 399 582.144 C 389.273 584.940, 375.302 585.545, 364.406 583.642 C 348.753 580.908, 322.504 570.455, 323.669 567.419 C 323.980 566.609, 324.294 562.920, 324.367 559.223 L 324.500 552.500 327.901 552.175 L 331.303 551.851 324.707 547.834 C 321.080 545.624, 317.974 543.924, 317.806 544.055 C 317.638 544.187, 316.375 543.336, 315 542.164 C 313.625 540.992, 308.450 537.035, 303.500 533.370 C 298.550 529.705, 291.125 523.762, 287 520.163 C 282.875 516.565, 278.600 512.884, 277.500 511.985 C 275.640 510.465, 274.763 510.509, 265 512.604 M 322.559 548.468 C 323.626 549.276, 324.924 549.951, 325.441 549.968 C 325.959 549.986, 325.509 549.339, 324.441 548.532 C 323.374 547.724, 322.076 547.049, 321.559 547.032 C 321.041 547.014, 321.491 547.661, 322.559 548.468" stroke="none" fill="black" fill-rule="evenodd"/>
</svg>